<?xml version="1.0" encoding="utf-8"?>
<!-- Generator: Adobe Illustrator 16.0.0, SVG Export Plug-In . SVG Version: 6.00 Build 0)  -->
<!DOCTYPE svg PUBLIC "-//W3C//DTD SVG 1.1//EN" "http://www.w3.org/Graphics/SVG/1.1/DTD/svg11.dtd">
<svg version="1.1" id="svg16614" xmlns:svg="http://www.w3.org/2000/svg"
	 xmlns="http://www.w3.org/2000/svg" xmlns:xlink="http://www.w3.org/1999/xlink" x="0px" y="0px" width="500px" height="500px"
	 viewBox="0 0 500 500" enable-background="new 0 0 500 500" xml:space="preserve">
<title  id="title16616">SVG drawing</title>
<desc  id="desc16618">This was produced by version 4.1 of GNU libplot, a free library for exporting 2-D vector graphics.</desc>
<polygon id="polygon16624" fill="#FF7D00" stroke="#000000" stroke-width="0.4604" stroke-miterlimit="10.433" points="
	4.165,495.834 495.834,495.834 495.834,4.164 4.165,4.164 "/>
<g id="g22908" transform="matrix(0.985389,0,0,0.985412,-4.007169e-2,6.433833e-2)">
	<path id="path16690" d="M298.248,388.71l3.12,6.249l153.413,18.561c0,7.718,0.183,18.193,0.183,25.728l-74.688-15.62
		c-2.019,0.184-3.854-1.103-5.139-0.551c0,1.286,0.551,2.022,1.835,1.837c1.284,0,3.853,0,3.853,2.022
		c0,3.676,1.285,6.799,3.303,9.372c0,2.574-1.834,3.86-3.853,5.697c-3.671,0.184-8.258-1.654-11.194,0.919
		c-6.423,6.433-12.846-2.573-19.819-3.676c-5.69-4.41-15.231,0.92-20.921-5.513c-4.954,1.286-7.707-4.227-12.112-4.227
		c-3.119-3.859-8.257-7.535-6.423-12.68c2.57-1.286,4.405-4.411,6.974-5.146v-1.286c-15.415-4.227-29.913-6.432-45.143-10.658
		h-4.404l-40.005-9.005c-6.24-1.286-11.01-1.102-16.7-2.94c-2.569-1.286-6.606-1.837-8.625-3.307
		c23.489,2.939,48.814,4.594,72.303,7.534c2.386-1.837,0.551-4.961,1.101-7.534c1.285-2.574,4.954-4.594,6.79-6.433
		C289.072,378.051,294.945,383.564,298.248,388.71z"/>
	<path id="path16692" d="M322.105,370.701c2.717,1.607,6.575-2.961,9.358-1.471c4.84,2.618,11.561,5.696,17.801,5.513
		c2.569,1.286,2.569,4.594,3.302,6.984c0.551,1.837,3.12,3.859,1.285,6.432c0,1.286-1.835,2.573-3.12,3.676
		c-2.569,0.183-4.955-0.552-7.524-1.103c-7.707,0.184-13.947,4.594-21.654,2.757c-4.404-2.389-8.441-3.124-14.129-4.227
		c-4.589-1.287-2.57-5.697-3.304-8.821c-3.487-4.594-7.706-6.8-7.706-13.232c1.834-2.757,4.954-1.471,8.257-0.735
		C310.36,368.863,316.691,370.172,322.105,370.701z"/>
	<path id="path16694" d="M454.414,343.869l0.184,27.934l-203.144-14.334l-0.734,0.551c2.018,2.573,3.303,6.799,1.284,9.924
		c-1.284,2.573-4.588,5.145-7.157,5.696c-1.835-0.551-4.037-1.47-4.588-2.756c-1.284-2.574,0.367-5.146-2.202-6.433
		c-4.404,0.735-6.056,4.043-9.175,5.33c-5.139,0-10.644-3.492-12.662-8.638c0-1.837,3.486-4.226,0.734-6.064
		c-2.385,0.183-5.138-0.368-7.157-0.919l0.734-0.735C291.642,350.302,373.303,344.788,454.414,343.869z"/>
	<path id="path16696" d="M159.516,328.616c2.984-0.118,5.744,0.791,5.689,3.675l0,0c0.734,1.286-1.101,3.308-1.835,4.594
		c0.184,5.697-6.239,6.984-9.909,10.292c-4.404,1.838-7.707-1.286-10.827-3.859c-3.854-1.103-10.827,3.307-12.662-2.389
		c0.551-4.962,4.955-6.983,6.056-11.395c3.303-3.859,8.808-3.307,13.947-4.593C153.827,324.941,156.396,328.064,159.516,328.616z"/>
	<polygon id="polygon16698" points="454.598,310.423 454.598,333.762 261.914,340.011 	"/>
	<path id="path16700" d="M100.61,315.2l3.67,3.859c-1.101,1.838-2.936,3.86-3.67,5.146c-1.285,3.125-4.404,5.146-7.524,5.146
		c-1.835,0-5.138,0-6.422-3.125c0-4.411,2.569-9.556,6.239-11.578C95.471,313.362,99.325,314.098,100.61,315.2z"/>
	<path id="path16702" d="M114.373,308.217c0.145-0.228,2.343,3.728,0.734,6.247c-0.046,0.047,2.042-1.538,0,0
		c-2.042,1.54-5.689,2.022-8.992,2.022c-1.835-1.286-1.835-3.675-1.835-5.696C106.115,307.666,111.46,307.229,114.373,308.217z"/>
	<path id="path16704" d="M209.797,290.758l-0.551,0.919l-0.734,0.92l-0.734,1.102l-0.734,0.919l-0.734,1.103l-0.734,1.102
		l-0.917,1.103l-0.734,0.919l-0.917,1.103l-0.918,1.103l-0.918,0.918l-1.101,1.104l-0.917,0.918l-1.102,0.92l-0.917,0.919
		l-1.101,0.919c-0.734-2.573,1.284-4.41,2.385-6.432c3.12-3.124,6.973-7.718,10.644-9.556H209.797z"/>
	<path id="path16706" d="M356.972,255.473c1.004,1.224,2.316,3.635,3.119,6.433c-1.605,1.424-4.954,1.286-5.505,3.859
		c1.285,6.248-5.138,9.005-8.257,12.68c-4.404,2.573-9.359,1.471-13.213,2.757c-6.423-1.286-11.378,5.881-17.617,1.471
		c-0.734-4.411-7.707-5.697-6.423-10.844c2.936-6.247,9.909-10.106,16.332-11.577c2.385-2.573,3.67-5.697,7.524-6.248
		c6.239-0.184,9.909-6.616,16.332-4.043C352.383,250.512,355.32,253.498,356.972,255.473z"/>
	<path id="path16708" d="M192.364,192.623c0.426,3.62,0.138,7.238,0.734,10.843c1.285,8.27-6.239,13.232-6.79,21.502
		c0,3.124-1.835,5.697-2.385,9.556c-0.734,2.021,0,4.411-0.551,6.432c-2.019,0.552-4.404,3.86-6.973,2.573
		c-3.303-3.124-2.019-7.719-2.569-11.394c-0.917-4.411-4.037-8.27-2.753-12.681c-1.284-4.411-3.303-10.107-0.183-13.966
		c1.835-7.535,10.093-5.697,14.497-10.292C187.226,192.623,189.795,190.05,192.364,192.623z"/>
	<path id="path16710" d="M240.443,191.52c1.26,1.717,0.438,7.266,0.183,10.659c-2.156,4.548-8.808,18.01-8.808,18.01
		c-0.551,0.551-1.835,0.551-3.12,0.551c-4.404-5.697-7.707-13.232-4.588-20.215c-0.183-6.984,8.075-8.27,11.928-12.864
		C238.425,187.661,239.869,190.095,240.443,191.52z"/>
	<path id="path16712" d="M288.89,50.197l-16.699,38.225c3.481,2.123,10.576,1.84,14.497,0.551c3.302-2.021,6.973-3.859,10.093-6.432
		c3.853,0.551,6.422,1.654,8.257,4.962c2.019,3.124,0.734,8.822,5.322,10.659l30.463-48.516c9.542,0.551,19.636-0.184,29.728,0.368
		l-153.23,202.887l72.486-120.924c1.834-2.573,3.669-5.697,4.404-8.27c-3.854-2.573-5.69,3.124-8.808,3.859
		c-2.57,1.47-6.424,0.735-8.258,2.022c-2.019-1.286-1.285-3.86-3.854-4.411c-3.12-1.102-6.973-1.102-8.257-4.411
		c-0.734-3.676,0.551-8.821-1.469-11.946h-0.55l-74.872,166.868c5.139,3.125,11.378-2.022,16.332,2.389
		c3.303-2.573,6.423-3.86,10.277-2.022l0.551,1.286c-0.551,1.102-5.689,10.107-2.936,10.107
		c9.909-5.145,25.507-29.405,34.316-38.409c54.686-66.343,108.087-134.339,164.974-198.844l42.942,0.184v24.442
		c-74.138,78.288-156.35,152.9-234.524,227.145c-1.285,1.838-3.12,2.022-2.569,4.412c2.936,0,7.707,2.388,10.277,0
		c75.421-56.971,151.761-114.125,226.817-171.646v41.716c-67.532,45.025-139.283,85.088-208.65,127.173
		c-2.019,2.757-2.386,12.129,1.468,13.966l207.182-77.553v37.857c-76.523,18.745-153.23,41.717-231.221,54.397
		c-3.67-2.388-2.569-8.821-1.835-13.232c0.734-2.573-10.827-1.653-13.396-4.961c-10.093,7.902-18.718,18.01-27.526,27.015
		c2.569,1.286,5.689,0.551,7.523,2.388c5.139,4.41,5.139,11.395,4.588,17.091c0,3.124-2.386,5.696-3.67,8.821
		c-3.119,2.757-7.524,0.735-10.643,2.022c-2.569,2.022-5.139,5.33-8.258,4.594c-5.139-0.551-10.827-3.676-15.231-0.368
		c-1.835,1.837-3.67,4.962-3.12,8.27c6.606,3.676,10.093,4.411,14.681,10.475c3.854,0,9.542,1.838,12.112-2.022
		c1.284,0,2.569,1.287,4.404,2.022c20.369,6.064,40.372,12.68,61.475,20.216c1.101-3.86,4.955-3.308,7.524-5.697
		c8.074-2.757,6.973,7.35,10.827,11.21l103.865,36.938v0.551h-62.76L181.17,398.083c-6.973,0.184-10.827,7.167-8.808,12.864
		c0.734,1.102,2.569,0.551,3.303-0.184c2.936-2.205,17.25,0.184,20.553,0.919c2.019,2.574,4.771,4.043,7.341,5.33
		c1.468,3.308-1.652,5.881,0,8.821c0.183,0.552-0.734,5.697-2.386,3.86c-1.835,1.837-4.404,4.41-6.973,2.573
		c-4.588-3.859-10.276-7.535-16.699-7.535c-5.505-0.552-3.67-6.8-7.524-8.638c-8.808,3.859-17.066,9.005-27.159,9.005
		c-62.576,6.615-78.542-71.305-30.829-99.054c1.835,0,6.422-5.881,8.258-5.146c2.569,3.676,8.258,18.01,5.872,22.053
		c-1.835,2.573-5.689,3.859-4.955,7.718c3.854,4.962,9.543-1.47,14.497,2.389c1.101,1.47,15.965,5.513,18.534,5.513
		c9.359-11.577,19.268-23.707,28.811-35.835c-4.404-5.33-12.845-22.972-10.643-30.508l78.542-242.031H288.89z"/>
	<path id="path16714" d="M186.859,50.197l-34.5,258.939c-1.835,1.286-3.854,2.573-4.404,4.411c0,1.837,2.019,4.41,0.183,4.961
		c-3.303,1.286-5.689,4.594-8.992,3.492c-4.404-2.573-10.643-1.837-13.946-6.432c-1.652-1.838-17.25-22.054-17.25-21.319
		c-2.569,2.573-1.284,9.005-6.239,10.292c-2.019,0-3.12,1.838-4.404,0c-4.588-3.125-4.588-7.535-8.992-10.107
		c-2.018-3.125-2.018-7.536-1.468-10.659c2.569-2.573,6.422-1.286,7.524-5.145L52.53,216.33v-54.581l77.074,150.143h0.551
		L68.129,117.275l26.976-2.389c2.018,7.719,2.936,15.988,4.955,23.523c2.385-0.551,2.385-3.124,2.936-5.145l1.652-5.514l6.79-6.616
		c3.119-3.676,2.202-8.27,4.037-11.946c6.606-6.799,17.617-9.924,25.875-13.599c6.79,3.859,5.138,15.621,8.442,22.053
		c0.55,1.47,2.202,1.102,2.202,0l2.202-67.445H186.859z"/>
	<path id="path16716" d="M411.841,135.469c1.92,0.8,5.739,19.094,4.404,21.502c-1.422,2.527-4.221,4.411-6.791,6.983
		c-3.853-0.183-4.404,6.248-8.992,3.676c-3.12-3.859-8.808-3.308-11.377-7.719c-1.284-4.594-1.835-10.843,1.284-13.967
		c4.404-2.021,6.79-6.248,11.377-5.513C404.867,138.409,408.606,135.583,411.841,135.469z"/>
	<path id="path16718" d="M204.292,131.058l1.652,28.485c0,6.248-4.955,9.556-6.24,15.253l-2.752,7.535
		c-9.91-0.919-5.872-18.745-12.663-22.604c-0.551-3.859,4.404-6.432,5.689-9.556C192.364,142.636,194.015,131.058,204.292,131.058z"
		/>
	<path id="path16720" d="M234.938,73.72l-2.386,14.702c-1.652,5.146-3.486,10.843-5.321,15.989
		c-3.67,3.308-5.505,7.902-7.341,11.761c-4.22,2.573-8.625,6.616-13.029,11.21c-5.689-2.94-8.992-8.637-12.295-12.864
		c-0.734-4.411-0.734-8.27-0.183-12.681c2.385-7.167,5.872-14.151,9.542-21.318c2.569-4.411,6.973-5.881,12.112-6.065l9.909-4.778
		C229.066,71.515,234.754,69.31,234.938,73.72z"/>
</g>
</svg>
